# xmcd CD database file
#
# Track frame offsets:
#	195
#	16793
#	44776
#	66336
#	85861
#	106761
#	119417
#	146015
#	165822
#	187211
#	211255
#	228885
#	255014
#	269580
#	285376
#	311759
#
# Disc length: 4484 seconds
#
# Revision: 3
# Processed by: cddbd v1.5.1PL2 Copyright (c) Steve Scherf et al.
# Submitted via: CDex 1.51
#
DISCID=db118210
DTITLE=Nils Lofgren - Favorites 1990 - 2005
DYEAR=2005
DGENRE=Rock
TTITLE0=New Kind Of Freedom
TTITLE1=Valentine
TTITLE2=Tears On Ice (previously unreleased)
TTITLE3=A Child Could Tell
TTITLE4=Gun and Run (live)
TTITLE5=Little Bit O' Time
TTITLE6=Bein' Angry
TTITLE7=Slippery Fingers (live)
TTITLE8=Misery (demo)
TTITLE9=Trouble's Back
TTITLE10=Walkin' Nerve
TTITLE11=Shot At You
TTITLE12=Open Road
TTITLE13=You
TTITLE14=Girl In Motion
TTITLE15=Black Books (live)
EXTD=YEAR: 2005
EXTT0=
EXTT1=
EXTT2=
EXTT3=
EXTT4=
EXTT5=
EXTT6=
EXTT7=
EXTT8=
EXTT9=
EXTT10=
EXTT11=
EXTT12=
EXTT13=
EXTT14=
EXTT15=
PLAYORDER=
